<svg width="61" height="60" viewBox="0 0 61 60" fill="none" xmlns="http://www.w3.org/2000/svg">
<path d="M51.125 11.25H9.875C8.83947 11.25 8 12.0895 8 13.125V46.875C8 47.9105 8.83947 48.75 9.875 48.75H51.125C52.1605 48.75 53 47.9105 53 46.875V13.125C53 12.0895 52.1605 11.25 51.125 11.25Z" stroke="#24242E" stroke-width="3" stroke-linecap="round" stroke-linejoin="round"/>
<path d="M8 18.75H53" stroke="#24242E" stroke-width="3" stroke-linecap="round" stroke-linejoin="round"/>
<path d="M39.875 26.25C39.875 28.7364 38.8873 31.121 37.1291 32.8791C35.371 34.6373 32.9864 35.625 30.5 35.625C28.0136 35.625 25.629 34.6373 23.8709 32.8791C22.1127 31.121 21.125 28.7364 21.125 26.25" stroke="#24242E" stroke-width="3" stroke-linecap="round" stroke-linejoin="round"/>
</svg>
