<svg width="46" height="35" viewBox="0 0 46 35" fill="none" xmlns="http://www.w3.org/2000/svg">
<rect x="11" y="15" width="23" height="12" rx="1" fill="#FFCB0C"/>
<path d="M22.5 6L31.5933 21H13.4067L22.5 6Z" fill="#FFCB0C"/>
<path d="M38.3324 11.3842L32.555 28.085L20.7954 13.5631L38.3324 11.3842Z" fill="#FFCB0C"/>
<path d="M6.78942 11.3843L24.3264 13.5632L12.5668 28.0851L6.78942 11.3843Z" fill="#FFCB0C"/>
<path d="M11.166 26.7968C11.201 26.9406 11.2644 27.0759 11.3526 27.1947C11.4407 27.3136 11.5518 27.4136 11.6793 27.4888C11.8067 27.5639 11.948 27.6128 12.0946 27.6325C12.2413 27.6522 12.3904 27.6423 12.5332 27.6034C19.0505 25.7988 25.9357 25.7988 32.4531 27.6034C32.5959 27.6423 32.745 27.6522 32.8917 27.6325C33.0383 27.6128 33.1795 27.5639 33.307 27.4888C33.4344 27.4136 33.5455 27.3136 33.6337 27.1947C33.7219 27.0759 33.7853 26.9406 33.8203 26.7968L37.3066 11.9901C37.3545 11.792 37.346 11.5843 37.2821 11.3907C37.2183 11.1971 37.1015 11.0252 36.9451 10.8944C36.7887 10.7636 36.5989 10.6791 36.397 10.6504C36.1952 10.6218 35.9893 10.6502 35.8027 10.7323L28.8847 13.8085C28.6341 13.9189 28.3514 13.9324 28.0913 13.8466C27.8313 13.7607 27.6122 13.5816 27.4765 13.3437L23.457 6.09757C23.3624 5.92661 23.2238 5.78411 23.0555 5.68489C22.8872 5.58566 22.6954 5.53333 22.5 5.53333C22.3046 5.53333 22.1128 5.58566 21.9445 5.68489C21.7762 5.78411 21.6375 5.92661 21.5429 6.09757L17.5234 13.3437C17.3877 13.5816 17.1687 13.7607 16.9086 13.8466C16.6485 13.9324 16.3659 13.9189 16.1152 13.8085L9.19724 10.7323C9.01064 10.6502 8.80479 10.6218 8.60292 10.6504C8.40106 10.6791 8.21121 10.7636 8.05481 10.8944C7.89842 11.0252 7.7817 11.1971 7.71782 11.3907C7.65395 11.5843 7.64547 11.792 7.69334 11.9901L11.166 26.7968Z" stroke="#FFCB0C" stroke-width="2" stroke-linecap="round" stroke-linejoin="round"/>
<path d="M18.125 22.1074C21.0332 21.793 23.9668 21.793 26.875 22.1074" stroke="#6C5500" stroke-width="2" stroke-linecap="round" stroke-linejoin="round"/>
</svg>
