<svg width="168" height="40" viewBox="0 0 168 40" fill="none" xmlns="http://www.w3.org/2000/svg">
<path d="M45.592 21.584C45.592 20.6773 45.7733 19.8827 46.136 19.2C46.5093 18.5067 47.0213 17.9733 47.672 17.6C48.3227 17.2267 49.0693 17.04 49.912 17.04C50.9787 17.04 51.8587 17.296 52.552 17.808C53.256 18.3093 53.7307 19.0293 53.976 19.968H52.008C51.848 19.5307 51.592 19.1893 51.24 18.944C50.888 18.6987 50.4453 18.576 49.912 18.576C49.1653 18.576 48.568 18.8427 48.12 19.376C47.6827 19.8987 47.464 20.6347 47.464 21.584C47.464 22.5333 47.6827 23.2747 48.12 23.808C48.568 24.3413 49.1653 24.608 49.912 24.608C50.968 24.608 51.6667 24.144 52.008 23.216H53.976C53.72 24.112 53.24 24.8267 52.536 25.36C51.832 25.8827 50.9573 26.144 49.912 26.144C49.0693 26.144 48.3227 25.9573 47.672 25.584C47.0213 25.2 46.5093 24.6667 46.136 23.984C45.7733 23.2907 45.592 22.4907 45.592 21.584ZM59.6178 26.144C58.7858 26.144 58.0338 25.9573 57.3618 25.584C56.6898 25.2 56.1618 24.6667 55.7778 23.984C55.3938 23.2907 55.2018 22.4907 55.2018 21.584C55.2018 20.688 55.3991 19.8933 55.7938 19.2C56.1884 18.5067 56.7271 17.9733 57.4098 17.6C58.0924 17.2267 58.8551 17.04 59.6978 17.04C60.5404 17.04 61.3031 17.2267 61.9858 17.6C62.6684 17.9733 63.2071 18.5067 63.6018 19.2C63.9964 19.8933 64.1938 20.688 64.1938 21.584C64.1938 22.48 63.9911 23.2747 63.5858 23.968C63.1804 24.6613 62.6258 25.2 61.9218 25.584C61.2284 25.9573 60.4604 26.144 59.6178 26.144ZM59.6178 24.56C60.0871 24.56 60.5244 24.448 60.9298 24.224C61.3458 24 61.6818 23.664 61.9378 23.216C62.1938 22.768 62.3218 22.224 62.3218 21.584C62.3218 20.944 62.1991 20.4053 61.9538 19.968C61.7084 19.52 61.3831 19.184 60.9778 18.96C60.5724 18.736 60.1351 18.624 59.6658 18.624C59.1964 18.624 58.7591 18.736 58.3538 18.96C57.9591 19.184 57.6444 19.52 57.4098 19.968C57.1751 20.4053 57.0578 20.944 57.0578 21.584C57.0578 22.5333 57.2978 23.2693 57.7778 23.792C58.2684 24.304 58.8818 24.56 59.6178 24.56ZM76.6689 17.04C77.3622 17.04 77.9809 17.184 78.5249 17.472C79.0795 17.76 79.5115 18.1867 79.8209 18.752C80.1409 19.3173 80.3009 20 80.3009 20.8V26H78.4929V21.072C78.4929 20.2827 78.2955 19.68 77.9009 19.264C77.5062 18.8373 76.9675 18.624 76.2849 18.624C75.6022 18.624 75.0582 18.8373 74.6529 19.264C74.2582 19.68 74.0609 20.2827 74.0609 21.072V26H72.2529V21.072C72.2529 20.2827 72.0555 19.68 71.6609 19.264C71.2662 18.8373 70.7275 18.624 70.0449 18.624C69.3622 18.624 68.8182 18.8373 68.4129 19.264C68.0182 19.68 67.8209 20.2827 67.8209 21.072V26H65.9969V17.184H67.8209V18.192C68.1195 17.8293 68.4982 17.5467 68.9569 17.344C69.4155 17.1413 69.9062 17.04 70.4289 17.04C71.1329 17.04 71.7622 17.1893 72.3169 17.488C72.8715 17.7867 73.2982 18.2187 73.5969 18.784C73.8635 18.2507 74.2795 17.8293 74.8449 17.52C75.4102 17.2 76.0182 17.04 76.6689 17.04ZM84.4459 18.48C84.7552 18.0747 85.1765 17.7333 85.7099 17.456C86.2432 17.1787 86.8459 17.04 87.5179 17.04C88.2859 17.04 88.9845 17.232 89.6139 17.616C90.2539 17.9893 90.7552 18.5173 91.1179 19.2C91.4805 19.8827 91.6619 20.6667 91.6619 21.552C91.6619 22.4373 91.4805 23.232 91.1179 23.936C90.7552 24.6293 90.2539 25.1733 89.6139 25.568C88.9845 25.952 88.2859 26.144 87.5179 26.144C86.8459 26.144 86.2485 26.0107 85.7259 25.744C85.2032 25.4667 84.7765 25.1253 84.4459 24.72V30.192H82.6219V17.184H84.4459V18.48ZM89.8059 21.552C89.8059 20.944 89.6779 20.4213 89.4219 19.984C89.1765 19.536 88.8459 19.2 88.4299 18.976C88.0245 18.7413 87.5872 18.624 87.1179 18.624C86.6592 18.624 86.2219 18.7413 85.8059 18.976C85.4005 19.2107 85.0699 19.552 84.8139 20C84.5685 20.448 84.4459 20.976 84.4459 21.584C84.4459 22.192 84.5685 22.7253 84.8139 23.184C85.0699 23.632 85.4005 23.9733 85.8059 24.208C86.2219 24.4427 86.6592 24.56 87.1179 24.56C87.5872 24.56 88.0245 24.4427 88.4299 24.208C88.8459 23.9627 89.1765 23.6107 89.4219 23.152C89.6779 22.6933 89.8059 22.16 89.8059 21.552ZM95.2896 18.464C95.5563 18.016 95.9083 17.6693 96.3456 17.424C96.7936 17.168 97.3216 17.04 97.9296 17.04V18.928H97.4656C96.751 18.928 96.207 19.1093 95.8336 19.472C95.471 19.8347 95.2896 20.464 95.2896 21.36V26H93.4656V17.184H95.2896V18.464ZM107.686 21.376C107.686 21.7067 107.665 22.0053 107.622 22.272H100.886C100.94 22.976 101.201 23.5413 101.67 23.968C102.14 24.3947 102.716 24.608 103.398 24.608C104.38 24.608 105.073 24.1973 105.478 23.376H107.446C107.18 24.1867 106.694 24.8533 105.99 25.376C105.297 25.888 104.433 26.144 103.398 26.144C102.556 26.144 101.798 25.9573 101.126 25.584C100.465 25.2 99.9423 24.6667 99.5583 23.984C99.1849 23.2907 98.9983 22.4907 98.9983 21.584C98.9983 20.6773 99.1796 19.8827 99.5423 19.2C99.9156 18.5067 100.433 17.9733 101.094 17.6C101.766 17.2267 102.534 17.04 103.398 17.04C104.23 17.04 104.972 17.2213 105.622 17.584C106.273 17.9467 106.78 18.4587 107.142 19.12C107.505 19.7707 107.686 20.5227 107.686 21.376ZM105.782 20.8C105.772 20.128 105.532 19.5893 105.062 19.184C104.593 18.7787 104.012 18.576 103.318 18.576C102.689 18.576 102.15 18.7787 101.702 19.184C101.254 19.5787 100.988 20.1173 100.902 20.8H105.782ZM111.609 18.672V23.552C111.609 23.8827 111.684 24.1227 111.833 24.272C111.993 24.4107 112.26 24.48 112.633 24.48H113.753V26H112.313C111.492 26 110.863 25.808 110.425 25.424C109.988 25.04 109.769 24.416 109.769 23.552V18.672H108.729V17.184H109.769V14.992H111.609V17.184H113.753V18.672H111.609ZM116.362 16.016C116.032 16.016 115.754 15.904 115.53 15.68C115.306 15.456 115.194 15.1787 115.194 14.848C115.194 14.5173 115.306 14.24 115.53 14.016C115.754 13.792 116.032 13.68 116.362 13.68C116.682 13.68 116.954 13.792 117.178 14.016C117.402 14.24 117.514 14.5173 117.514 14.848C117.514 15.1787 117.402 15.456 117.178 15.68C116.954 15.904 116.682 16.016 116.362 16.016ZM117.258 17.184V26H115.434V17.184H117.258ZM123.477 26.144C122.645 26.144 121.893 25.9573 121.221 25.584C120.549 25.2 120.021 24.6667 119.637 23.984C119.253 23.2907 119.061 22.4907 119.061 21.584C119.061 20.688 119.258 19.8933 119.653 19.2C120.048 18.5067 120.586 17.9733 121.269 17.6C121.952 17.2267 122.714 17.04 123.557 17.04C124.4 17.04 125.162 17.2267 125.845 17.6C126.528 17.9733 127.066 18.5067 127.461 19.2C127.856 19.8933 128.053 20.688 128.053 21.584C128.053 22.48 127.85 23.2747 127.445 23.968C127.04 24.6613 126.485 25.2 125.781 25.584C125.088 25.9573 124.32 26.144 123.477 26.144ZM123.477 24.56C123.946 24.56 124.384 24.448 124.789 24.224C125.205 24 125.541 23.664 125.797 23.216C126.053 22.768 126.181 22.224 126.181 21.584C126.181 20.944 126.058 20.4053 125.813 19.968C125.568 19.52 125.242 19.184 124.837 18.96C124.432 18.736 123.994 18.624 123.525 18.624C123.056 18.624 122.618 18.736 122.213 18.96C121.818 19.184 121.504 19.52 121.269 19.968C121.034 20.4053 120.917 20.944 120.917 21.584C120.917 22.5333 121.157 23.2693 121.637 23.792C122.128 24.304 122.741 24.56 123.477 24.56ZM134.304 17.04C134.998 17.04 135.616 17.184 136.16 17.472C136.715 17.76 137.147 18.1867 137.456 18.752C137.766 19.3173 137.92 20 137.92 20.8V26H136.112V21.072C136.112 20.2827 135.915 19.68 135.52 19.264C135.126 18.8373 134.587 18.624 133.904 18.624C133.222 18.624 132.678 18.8373 132.272 19.264C131.878 19.68 131.68 20.2827 131.68 21.072V26H129.856V17.184H131.68V18.192C131.979 17.8293 132.358 17.5467 132.816 17.344C133.286 17.1413 133.782 17.04 134.304 17.04ZM142.071 14.16V26H140.247V14.16H142.071ZM145.394 16.016C145.063 16.016 144.786 15.904 144.562 15.68C144.338 15.456 144.226 15.1787 144.226 14.848C144.226 14.5173 144.338 14.24 144.562 14.016C144.786 13.792 145.063 13.68 145.394 13.68C145.714 13.68 145.986 13.792 146.21 14.016C146.434 14.24 146.546 14.5173 146.546 14.848C146.546 15.1787 146.434 15.456 146.21 15.68C145.986 15.904 145.714 16.016 145.394 16.016ZM146.29 17.184V26H144.466V17.184H146.29ZM153.132 17.04C153.826 17.04 154.444 17.184 154.988 17.472C155.543 17.76 155.975 18.1867 156.284 18.752C156.594 19.3173 156.748 20 156.748 20.8V26H154.94V21.072C154.94 20.2827 154.743 19.68 154.348 19.264C153.954 18.8373 153.415 18.624 152.732 18.624C152.05 18.624 151.506 18.8373 151.1 19.264C150.706 19.68 150.508 20.2827 150.508 21.072V26H148.684V17.184H150.508V18.192C150.807 17.8293 151.186 17.5467 151.644 17.344C152.114 17.1413 152.61 17.04 153.132 17.04ZM167.155 21.376C167.155 21.7067 167.134 22.0053 167.091 22.272H160.355C160.408 22.976 160.67 23.5413 161.139 23.968C161.608 24.3947 162.184 24.608 162.867 24.608C163.848 24.608 164.542 24.1973 164.947 23.376H166.915C166.648 24.1867 166.163 24.8533 165.459 25.376C164.766 25.888 163.902 26.144 162.867 26.144C162.024 26.144 161.267 25.9573 160.595 25.584C159.934 25.2 159.411 24.6667 159.027 23.984C158.654 23.2907 158.467 22.4907 158.467 21.584C158.467 20.6773 158.648 19.8827 159.011 19.2C159.384 18.5067 159.902 17.9733 160.563 17.6C161.235 17.2267 162.003 17.04 162.867 17.04C163.699 17.04 164.44 17.2213 165.091 17.584C165.742 17.9467 166.248 18.4587 166.611 19.12C166.974 19.7707 167.155 20.5227 167.155 21.376ZM165.251 20.8C165.24 20.128 165 19.5893 164.531 19.184C164.062 18.7787 163.48 18.576 162.787 18.576C162.158 18.576 161.619 18.7787 161.171 19.184C160.723 19.5787 160.456 20.1173 160.371 20.8H165.251Z" fill="#24242E"/>
<path d="M33.75 7.5H6.25C5.55964 7.5 5 8.05964 5 8.75V31.25C5 31.9404 5.55964 32.5 6.25 32.5H33.75C34.4404 32.5 35 31.9404 35 31.25V8.75C35 8.05964 34.4404 7.5 33.75 7.5Z" stroke="#24242E" stroke-width="2" stroke-linecap="round" stroke-linejoin="round"/>
<path d="M5 12.5H35" stroke="#24242E" stroke-width="2" stroke-linecap="round" stroke-linejoin="round"/>
<path d="M26.25 17.5C26.25 19.1576 25.5915 20.7473 24.4194 21.9194C23.2473 23.0915 21.6576 23.75 20 23.75C18.3424 23.75 16.7527 23.0915 15.5806 21.9194C14.4085 20.7473 13.75 19.1576 13.75 17.5" stroke="#24242E" stroke-width="2" stroke-linecap="round" stroke-linejoin="round"/>
</svg>
